<mxfile host="app.diagrams.net" modified="2024-04-05T08:44:48.813Z" agent="Mozilla/5.0 (Windows NT 10.0; Win64; x64; rv:124.0) Gecko/20100101 Firefox/124.0" etag="WvfuQ3PJms6-IkfOPlV1" version="24.2.2" type="device">
  <diagram id="C5RBs43oDa-KdzZeNtuy" name="Page-1">
    <mxGraphModel dx="1434" dy="746" grid="1" gridSize="10" guides="1" tooltips="1" connect="1" arrows="1" fold="1" page="1" pageScale="1" pageWidth="827" pageHeight="1169" math="0" shadow="0">
      <root>
        <mxCell id="WIyWlLk6GJQsqaUBKTNV-0" />
        <mxCell id="WIyWlLk6GJQsqaUBKTNV-1" parent="WIyWlLk6GJQsqaUBKTNV-0" />
        <mxCell id="WIyWlLk6GJQsqaUBKTNV-3" value="Timeseries&lt;br&gt;Latitude, Longitude, Altitude" style="rounded=1;whiteSpace=wrap;html=1;fontSize=12;glass=0;strokeWidth=1;shadow=0;fillColor=#60a917;fontColor=#ffffff;strokeColor=#2D7600;" parent="WIyWlLk6GJQsqaUBKTNV-1" vertex="1">
          <mxGeometry x="90" y="50" width="140" height="60" as="geometry" />
        </mxCell>
        <mxCell id="b3d6tO9OOzQfFbIuxBPO-28" style="edgeStyle=orthogonalEdgeStyle;rounded=0;orthogonalLoop=1;jettySize=auto;html=1;exitX=0.5;exitY=1;exitDx=0;exitDy=0;entryX=0.25;entryY=0;entryDx=0;entryDy=0;strokeWidth=2;" parent="WIyWlLk6GJQsqaUBKTNV-1" source="nY5QdWtAfCeqt1IPBH1M-0" target="b3d6tO9OOzQfFbIuxBPO-17" edge="1">
          <mxGeometry relative="1" as="geometry">
            <Array as="points">
              <mxPoint x="160" y="400" />
              <mxPoint x="293" y="400" />
            </Array>
          </mxGeometry>
        </mxCell>
        <mxCell id="O4i9VfM06XI1pBtCiao6-6" style="edgeStyle=orthogonalEdgeStyle;rounded=0;orthogonalLoop=1;jettySize=auto;html=1;exitX=1;exitY=0.5;exitDx=0;exitDy=0;entryX=0.25;entryY=0;entryDx=0;entryDy=0;strokeWidth=2;" parent="WIyWlLk6GJQsqaUBKTNV-1" source="nY5QdWtAfCeqt1IPBH1M-0" target="O4i9VfM06XI1pBtCiao6-4" edge="1">
          <mxGeometry relative="1" as="geometry" />
        </mxCell>
        <mxCell id="nY5QdWtAfCeqt1IPBH1M-0" value="Solar zenith&lt;br&gt;Solar altitude&amp;nbsp;&lt;br&gt;Solar elevation" style="rounded=0;whiteSpace=wrap;html=1;fillColor=#1ba1e2;fontColor=#ffffff;strokeColor=default;" parent="WIyWlLk6GJQsqaUBKTNV-1" vertex="1">
          <mxGeometry x="70" y="160" width="180" height="60" as="geometry" />
        </mxCell>
        <mxCell id="nY5QdWtAfCeqt1IPBH1M-9" value="" style="endArrow=classic;html=1;rounded=0;exitX=0.5;exitY=1;exitDx=0;exitDy=0;entryX=0.5;entryY=0;entryDx=0;entryDy=0;" parent="WIyWlLk6GJQsqaUBKTNV-1" source="WIyWlLk6GJQsqaUBKTNV-3" target="nY5QdWtAfCeqt1IPBH1M-0" edge="1">
          <mxGeometry relative="1" as="geometry">
            <mxPoint x="170" y="400" as="sourcePoint" />
            <mxPoint x="270" y="400" as="targetPoint" />
          </mxGeometry>
        </mxCell>
        <mxCell id="nY5QdWtAfCeqt1IPBH1M-10" value="solarposition.get_solarposition" style="edgeLabel;resizable=0;html=1;align=center;verticalAlign=middle;" parent="nY5QdWtAfCeqt1IPBH1M-9" connectable="0" vertex="1">
          <mxGeometry relative="1" as="geometry" />
        </mxCell>
        <mxCell id="b3d6tO9OOzQfFbIuxBPO-23" style="edgeStyle=orthogonalEdgeStyle;rounded=0;orthogonalLoop=1;jettySize=auto;html=1;entryX=0.5;entryY=0;entryDx=0;entryDy=0;strokeWidth=2;exitX=0.5;exitY=1;exitDx=0;exitDy=0;" parent="WIyWlLk6GJQsqaUBKTNV-1" source="O4i9VfM06XI1pBtCiao6-5" target="b3d6tO9OOzQfFbIuxBPO-17" edge="1">
          <mxGeometry relative="1" as="geometry">
            <mxPoint x="370" y="400" as="sourcePoint" />
          </mxGeometry>
        </mxCell>
        <mxCell id="O4i9VfM06XI1pBtCiao6-7" style="edgeStyle=orthogonalEdgeStyle;rounded=0;orthogonalLoop=1;jettySize=auto;html=1;exitX=0.5;exitY=1;exitDx=0;exitDy=0;entryX=0.75;entryY=0;entryDx=0;entryDy=0;strokeWidth=2;" parent="WIyWlLk6GJQsqaUBKTNV-1" source="b3d6tO9OOzQfFbIuxBPO-0" target="O4i9VfM06XI1pBtCiao6-4" edge="1">
          <mxGeometry relative="1" as="geometry" />
        </mxCell>
        <mxCell id="b3d6tO9OOzQfFbIuxBPO-0" value="&lt;div&gt;Tracker/axis azimuth&lt;/div&gt;&lt;div&gt;Real weather data&lt;br&gt;&lt;/div&gt;&lt;div&gt;GHI&lt;/div&gt;" style="rounded=1;whiteSpace=wrap;html=1;fontSize=12;glass=0;strokeWidth=1;shadow=0;fillColor=#60a917;fontColor=#ffffff;strokeColor=#2D7600;" parent="WIyWlLk6GJQsqaUBKTNV-1" vertex="1">
          <mxGeometry x="335" y="40" width="140" height="70" as="geometry" />
        </mxCell>
        <mxCell id="b3d6tO9OOzQfFbIuxBPO-25" style="edgeStyle=orthogonalEdgeStyle;rounded=0;orthogonalLoop=1;jettySize=auto;html=1;exitX=0.5;exitY=1;exitDx=0;exitDy=0;entryX=0.75;entryY=0;entryDx=0;entryDy=0;strokeWidth=2;" parent="WIyWlLk6GJQsqaUBKTNV-1" source="b3d6tO9OOzQfFbIuxBPO-1" target="b3d6tO9OOzQfFbIuxBPO-17" edge="1">
          <mxGeometry relative="1" as="geometry">
            <Array as="points">
              <mxPoint x="605" y="400" />
              <mxPoint x="438" y="400" />
            </Array>
          </mxGeometry>
        </mxCell>
        <mxCell id="b3d6tO9OOzQfFbIuxBPO-1" value="&lt;div&gt;Beta&lt;/div&gt;&lt;div&gt;- Max. rotation angle &amp;lt;= Beta &amp;lt;= Max rotation angle&lt;br&gt;&lt;/div&gt;&lt;div&gt;Resolution of 1Â°&lt;br&gt;&lt;/div&gt;" style="rounded=0;whiteSpace=wrap;html=1;fillStyle=solid;fillColor=#76608a;strokeColor=#432D57;fontColor=#ffffff;" parent="WIyWlLk6GJQsqaUBKTNV-1" vertex="1">
          <mxGeometry x="460" y="140" width="290" height="80" as="geometry" />
        </mxCell>
        <mxCell id="b3d6tO9OOzQfFbIuxBPO-20" style="edgeStyle=orthogonalEdgeStyle;rounded=0;orthogonalLoop=1;jettySize=auto;html=1;exitX=0.5;exitY=1;exitDx=0;exitDy=0;entryX=0.5;entryY=0;entryDx=0;entryDy=0;strokeWidth=2;" parent="WIyWlLk6GJQsqaUBKTNV-1" source="b3d6tO9OOzQfFbIuxBPO-17" target="b3d6tO9OOzQfFbIuxBPO-19" edge="1">
          <mxGeometry relative="1" as="geometry" />
        </mxCell>
        <mxCell id="b3d6tO9OOzQfFbIuxBPO-17" value="POA irradiance (global, direct, diffuse)&lt;br&gt;Transposition model - Perez" style="rounded=0;whiteSpace=wrap;html=1;fillStyle=solid;fillColor=#E67300;strokeColor=#663300;" parent="WIyWlLk6GJQsqaUBKTNV-1" vertex="1">
          <mxGeometry x="220" y="500" width="290" height="50" as="geometry" />
        </mxCell>
        <mxCell id="b3d6tO9OOzQfFbIuxBPO-19" value="&lt;div&gt;Optimal rotation angle&lt;/div&gt;" style="rounded=0;whiteSpace=wrap;html=1;fillColor=#1ba1e2;fontColor=#ffffff;strokeColor=default;" parent="WIyWlLk6GJQsqaUBKTNV-1" vertex="1">
          <mxGeometry x="275" y="630" width="180" height="30" as="geometry" />
        </mxCell>
        <mxCell id="b3d6tO9OOzQfFbIuxBPO-22" style="edgeStyle=orthogonalEdgeStyle;rounded=0;orthogonalLoop=1;jettySize=auto;html=1;entryX=0.5;entryY=0;entryDx=0;entryDy=0;strokeWidth=2;" parent="WIyWlLk6GJQsqaUBKTNV-1" source="b3d6tO9OOzQfFbIuxBPO-21" target="b3d6tO9OOzQfFbIuxBPO-1" edge="1">
          <mxGeometry relative="1" as="geometry" />
        </mxCell>
        <mxCell id="b3d6tO9OOzQfFbIuxBPO-21" value="Maximum rotation angle" style="rounded=1;whiteSpace=wrap;html=1;fontSize=12;glass=0;strokeWidth=1;shadow=0;fillColor=#60a917;fontColor=#ffffff;strokeColor=#2D7600;" parent="WIyWlLk6GJQsqaUBKTNV-1" vertex="1">
          <mxGeometry x="535" y="45" width="140" height="40" as="geometry" />
        </mxCell>
        <mxCell id="O4i9VfM06XI1pBtCiao6-0" value="" style="endArrow=none;html=1;rounded=0;dashed=1;" parent="WIyWlLk6GJQsqaUBKTNV-1" edge="1">
          <mxGeometry width="50" height="50" relative="1" as="geometry">
            <mxPoint x="365" y="600" as="sourcePoint" />
            <mxPoint x="680" y="600" as="targetPoint" />
          </mxGeometry>
        </mxCell>
        <mxCell id="O4i9VfM06XI1pBtCiao6-2" value="" style="endArrow=classic;html=1;rounded=0;entryX=0.75;entryY=1;entryDx=0;entryDy=0;dashed=1;" parent="WIyWlLk6GJQsqaUBKTNV-1" target="b3d6tO9OOzQfFbIuxBPO-1" edge="1">
          <mxGeometry relative="1" as="geometry">
            <mxPoint x="680" y="600" as="sourcePoint" />
            <mxPoint x="620" y="400" as="targetPoint" />
          </mxGeometry>
        </mxCell>
        <mxCell id="O4i9VfM06XI1pBtCiao6-3" value="Beta = Beta + 1" style="edgeLabel;resizable=0;html=1;align=center;verticalAlign=middle;" parent="O4i9VfM06XI1pBtCiao6-2" connectable="0" vertex="1">
          <mxGeometry relative="1" as="geometry">
            <mxPoint x="1" y="55" as="offset" />
          </mxGeometry>
        </mxCell>
        <mxCell id="O4i9VfM06XI1pBtCiao6-8" style="edgeStyle=orthogonalEdgeStyle;rounded=0;orthogonalLoop=1;jettySize=auto;html=1;exitX=0.5;exitY=1;exitDx=0;exitDy=0;entryX=0.5;entryY=0;entryDx=0;entryDy=0;strokeWidth=2;" parent="WIyWlLk6GJQsqaUBKTNV-1" source="O4i9VfM06XI1pBtCiao6-4" target="O4i9VfM06XI1pBtCiao6-5" edge="1">
          <mxGeometry relative="1" as="geometry" />
        </mxCell>
        <mxCell id="O4i9VfM06XI1pBtCiao6-4" value="Decomposition model - Erbs" style="rounded=0;whiteSpace=wrap;html=1;fillStyle=solid;fillColor=#E67300;strokeColor=#663300;" parent="WIyWlLk6GJQsqaUBKTNV-1" vertex="1">
          <mxGeometry x="282" y="238" width="165" height="40" as="geometry" />
        </mxCell>
        <mxCell id="O4i9VfM06XI1pBtCiao6-5" value="&lt;div&gt;DHI, DNI&lt;/div&gt;" style="rounded=1;whiteSpace=wrap;html=1;fontSize=12;glass=0;strokeWidth=1;shadow=0;fillColor=#1ba1e2;fontColor=#ffffff;strokeColor=#006EAF;" parent="WIyWlLk6GJQsqaUBKTNV-1" vertex="1">
          <mxGeometry x="294.5" y="340" width="140" height="28" as="geometry" />
        </mxCell>
      </root>
    </mxGraphModel>
  </diagram>
</mxfile>
